<svg width="163" height="29" viewBox="0 0 163 29" fill="none" xmlns="http://www.w3.org/2000/svg" class="sc-gGnURB KIsVn"><g clip-path="url(#am5whcdhqa)"><path d="m18.723 1.03-8.449 7.743a4.753 4.753 0 0 1-3.194 1.252l-2.519.006-.008-9.001H0v25.722h2.483a3.847 3.847 0 0 0 3.363-1.962c.006-.008.008-.017.014-.022.45-.817.676-2.431.633-3.533-.098-2.519-.5-3.174-.5-3.174-.084 1.727-1.872 1.82-1.872 1.82 1.272-1.225.579-2.151.579-2.151-2.252 1.617-2.815-.11-2.858-.266.07.06.712.6 1.929-1.083 1.287-1.779 3.004-4.744 4.096-5.506C8.962 10.11 10 10.173 10 10.173s.598-.817 2.179-1.496c1.58-.674 2.594.315 2.594.315-1.616 1.315-3.811 3.475-3.934 6.57-.097 2.505 5.254 6.802 4.315 13.15.562-1.442.787-2.886.595-4.673-.155-1.442-1.076-4.454-1.076-4.454l5.14 7.165h5.683L14.388 11.354 25.495 1.03h-6.773Z" fill="url(#9qdwffh0lb)"></path><path d="M8.372 12.105c-.359.6-.359.784-.359.784s1.255-.214 1.595-1.718c.003 0-.802.208-1.236.934Z" fill="url(#3gc0k5qi9c)"></path><path d="M40.73.991 30.043 22.153l-2.334 4.599h5.108l2.333-4.6 5.58-11.042 5.583 11.043 2.334 4.599h5.107l-2.336-4.6L40.73.993Z" fill="url(#8hmx18arud)"></path><path d="M78.885 7.982c0-1.913-.766-3.642-2.008-4.93a6.815 6.815 0 0 0-4.852-2.023H55.902v25.76h4.558V14.94h4.559c1.64 0 3.064.882 3.866 2.208l.108.222 2.446 4.821 2.333 4.6h5.107l-2.333-4.6-3.649-7.323a6.08 6.08 0 0 0 1.97-.55 6.987 6.987 0 0 0 4.018-6.335Zm-5.912 2.135c-.29.148-.619.222-.948.222l-11.562.036V5.628h11.562c.802 0 1.35.367 1.641.663.255.258.693.847.693 1.694a2.33 2.33 0 0 1-1.386 2.132Z" fill="url(#zhdqr5m33e)"></path><path d="M103.543 13.87c0 4.563-3.684 8.28-8.207 8.28-4.524 0-8.207-3.716-8.207-8.28V.991H82.57v12.88c0 7.1 5.727 12.878 12.766 12.878S108.1 20.972 108.1 13.87V.991h-4.558v12.88Z" fill="url(#xvkewwkqhf)"></path><path d="M134.694 7.982a7.079 7.079 0 0 0-2.007-4.93 6.811 6.811 0 0 0-4.852-2.023h-16.124v25.76h4.561V14.94h4.559c1.641 0 3.064.882 3.866 2.208l.109.222 2.445 4.821 2.333 4.6h5.107l-2.333-4.6-3.649-7.323a6.078 6.078 0 0 0 1.97-.55 6.985 6.985 0 0 0 4.015-6.335Zm-5.909 2.135c-.29.148-.619.222-.948.222l-11.565.036V5.628h11.563c.801 0 1.35.367 1.64.663.256.258.693.847.693 1.694a2.332 2.332 0 0 1-1.383 2.132Z" fill="url(#4vwurt44gg)"></path><path d="M160.666 22.153 149.979.99l-10.69 21.162-2.334 4.599h5.108l2.333-4.6 5.583-11.042 5.58 11.043 2.334 4.599H163l-2.334-4.6Z" fill="url(#j21ho8l04h)"></path></g><defs><linearGradient id="9qdwffh0lb" x1="38.313" y1="19.142" x2="17.007" y2="-3.818" gradientUnits="userSpaceOnUse"><stop stop-color="#E40C5B"></stop><stop offset="1" stop-color="#ff4c3b"></stop></linearGradient><linearGradient id="3gc0k5qi9c" x1="10.41" y1="12.295" x2="9.088" y2="10.86" gradientUnits="userSpaceOnUse"><stop stop-color="#E40C5B"></stop><stop offset="1" stop-color="#ff4c3b"></stop></linearGradient><linearGradient id="8hmx18arud" x1="66.847" y1="17.846" x2="47.241" y2="-5.346" gradientUnits="userSpaceOnUse"><stop stop-color="#E40C5B"></stop><stop offset="1" stop-color="#ff4c3b"></stop></linearGradient><linearGradient id="zhdqr5m33e" x1="90.439" y1="17.884" x2="70.574" y2="-2.852" gradientUnits="userSpaceOnUse"><stop stop-color="#E40C5B"></stop><stop offset="1" stop-color="#ff4c3b"></stop></linearGradient><linearGradient id="xvkewwkqhf" x1="120.937" y1="17.844" x2="101.272" y2="-4.961" gradientUnits="userSpaceOnUse"><stop stop-color="#E40C5B"></stop><stop offset="1" stop-color="#ff4c3b"></stop></linearGradient><linearGradient id="4vwurt44gg" x1="146.248" y1="17.884" x2="126.383" y2="-2.852" gradientUnits="userSpaceOnUse"><stop stop-color="#E40C5B"></stop><stop offset="1" stop-color="#ff4c3b"></stop></linearGradient><linearGradient id="j21ho8l04h" x1="176.094" y1="17.846" x2="156.487" y2="-5.346" gradientUnits="userSpaceOnUse"><stop stop-color="#E40C5B"></stop><stop offset="1" stop-color="#ff4c3b"></stop></linearGradient><clipPath id="am5whcdhqa"><path fill="#fff" transform="translate(0 .991)" d="M0 0h163v27.72H0z"></path></clipPath></defs></svg>